<svg width="24" height="25" viewBox="0 0 24 25" fill="none" xmlns="http://www.w3.org/2000/svg">
<path d="M21.97 18.703C21.97 19.063 21.89 19.433 21.72 19.793C21.55 20.153 21.33 20.493 21.04 20.813C20.55 21.353 20.01 21.743 19.4 21.993C18.8 22.243 18.15 22.373 17.45 22.373C16.43 22.373 15.34 22.133 14.19 21.643C13.04 21.153 11.89 20.493 10.75 19.663C9.6 18.823 8.51 17.893 7.47 16.863C6.44 15.823 5.51 14.733 4.68 13.593C3.86 12.453 3.2 11.313 2.72 10.183C2.24 9.04305 2 7.95305 2 6.91305C2 6.23305 2.12 5.58305 2.36 4.98305C2.6 4.37305 2.98 3.81305 3.51 3.31305C4.15 2.68305 4.85 2.37305 5.59 2.37305C5.87 2.37305 6.15 2.43305 6.4 2.55305C6.66 2.67305 6.89 2.85305 7.07 3.11305L9.39 6.38305C9.57 6.63305 9.7 6.86305 9.79 7.08305C9.88 7.29305 9.93 7.50305 9.93 7.69305C9.93 7.93305 9.86 8.17305 9.72 8.40305C9.59 8.63305 9.4 8.87305 9.16 9.11305L8.4 9.90305C8.29 10.013 8.24 10.143 8.24 10.303C8.24 10.383 8.25 10.453 8.27 10.533C8.3 10.613 8.33 10.673 8.35 10.733C8.53 11.063 8.84 11.493 9.28 12.013C9.73 12.533 10.21 13.063 10.73 13.593C11.27 14.123 11.79 14.613 12.32 15.063C12.84 15.503 13.27 15.803 13.61 15.983C13.66 16.003 13.72 16.033 13.79 16.063C13.87 16.093 13.95 16.103 14.04 16.103C14.21 16.103 14.34 16.043 14.45 15.933L15.21 15.183C15.46 14.933 15.7 14.743 15.93 14.623C16.16 14.483 16.39 14.413 16.64 14.413C16.83 14.413 17.03 14.453 17.25 14.543C17.47 14.633 17.7 14.763 17.95 14.933L21.26 17.283C21.52 17.463 21.7 17.673 21.81 17.923C21.91 18.173 21.97 18.423 21.97 18.703Z" stroke="white" stroke-opacity="0.8" stroke-width="1.5" stroke-miterlimit="10"/>
</svg>
