<svg width="40" height="40" viewBox="0 0 40 40" fill="none" xmlns="http://www.w3.org/2000/svg">
<g clip-path="url(#clip0_763_5251)">
<path fill-rule="evenodd" clip-rule="evenodd" d="M14.2026 26.8591C7.69988 26.8812 2.41046 21.6278 2.38829 15.1251L2.38113 13.0235C2.35896 6.52081 7.61245 1.23139 14.1151 1.20922L25.0529 1.17194C25.5148 1.17036 25.8905 1.54354 25.8921 2.00546C25.8937 2.46737 25.5205 2.84311 25.0586 2.84469L14.1208 2.88197C8.46632 2.90125 3.89947 7.90986 3.92047 14.069C3.94146 20.2282 8.54234 25.2055 14.1969 25.1862L25.1346 25.149C25.5965 25.1474 25.9723 25.5206 25.9738 25.9825C25.9754 26.4445 25.6022 26.8202 25.1403 26.8218L14.2026 26.8591ZM13.7227 14.017C13.7211 13.5551 14.0943 13.1794 14.5562 13.1778L25.494 13.1405C31.9966 13.1183 37.2861 18.3718 37.3082 24.8745L37.3154 26.9761C37.3376 33.4788 32.0841 38.7682 25.5814 38.7903L14.6437 38.8276C14.1818 38.8292 13.806 38.456 13.8044 37.9941C13.8029 37.5321 14.1761 37.1564 14.638 37.1548L25.5757 37.1175C31.2302 37.0983 35.7971 32.0897 35.7761 25.9305C35.7551 19.7713 31.1542 14.794 25.4997 14.8133L14.5619 14.8505C14.1 14.8521 13.7243 14.4789 13.7227 14.017Z" fill="#FDFDFD" stroke="white" stroke-width="2.02667"/>
</g>
<defs>
<clipPath id="clip0_763_5251">
<rect x="1.06494" y="39.0645" width="38" height="38" rx="11.4" transform="rotate(-90.1953 1.06494 39.0645)" fill="white"/>
</clipPath>
</defs>
</svg>
