<svg width="24" height="25" viewBox="0 0 24 25" fill="none" xmlns="http://www.w3.org/2000/svg">
<path d="M4 20.373C3.45 20.373 2.97917 20.1772 2.5875 19.7855C2.19583 19.3939 2 18.923 2 18.373V6.37305C2 5.82305 2.19583 5.35221 2.5875 4.96055C2.97917 4.56888 3.45 4.37305 4 4.37305H20C20.55 4.37305 21.0208 4.56888 21.4125 4.96055C21.8042 5.35221 22 5.82305 22 6.37305V18.373C22 18.923 21.8042 19.3939 21.4125 19.7855C21.0208 20.1772 20.55 20.373 20 20.373H4ZM12 13.373L4 8.37305V18.373H20V8.37305L12 13.373ZM12 11.373L20 6.37305H4L12 11.373ZM4 8.37305V6.37305V18.373V8.37305Z" fill="white" fill-opacity="0.8"/>
</svg>
