<svg width="24" height="25" viewBox="0 0 24 25" fill="none" xmlns="http://www.w3.org/2000/svg">
<path d="M9.58063 1.81299C8.16819 1.81299 7.08029 3.09799 7.20969 4.5383L7.88094 11.9858C7.90104 12.2088 8.04742 12.3708 8.15375 12.5558C7.8248 12.7173 7.55534 12.9812 7.38688 13.3039C6.46318 13.1632 5.75938 12.3777 5.75938 11.413C6.14885 11.413 6.51269 11.2529 6.77375 10.9874C7.03927 10.7263 7.19938 10.3625 7.19938 9.97299C7.19938 9.7113 7.12872 9.46389 7.00344 9.25018C6.75373 8.82303 6.28707 8.53299 5.75938 8.53299H4.79938C4.4099 8.53299 4.04606 8.69309 3.785 8.95861C3.51948 9.21967 3.35938 9.58352 3.35938 9.97299C3.35938 10.7628 4.00956 11.413 4.79938 11.413C4.79938 12.8408 5.85254 14.0307 7.22 14.2527C7.32105 15.0809 8.0256 15.733 8.87938 15.733H11.5194V17.173H11.0394C10.9121 17.173 10.79 17.2236 10.7 17.3136C10.61 17.4036 10.5594 17.5257 10.5594 17.653V19.573C9.76698 19.573 8.96378 19.8788 8.32625 20.3783C7.68872 20.8778 7.19938 21.6026 7.19938 22.453C7.19848 22.5166 7.21023 22.5797 7.23394 22.6388C7.25766 22.6978 7.29288 22.7515 7.33754 22.7968C7.3822 22.8421 7.43542 22.8781 7.4941 22.9026C7.55279 22.9272 7.61576 22.9398 7.67938 22.9398C7.74299 22.9398 7.80596 22.9272 7.86465 22.9026C7.92333 22.8781 7.97655 22.8421 8.02121 22.7968C8.06587 22.7515 8.10109 22.6978 8.1248 22.6388C8.14852 22.5797 8.16027 22.5166 8.15938 22.453C8.15938 21.978 8.4476 21.5031 8.91875 21.1339C9.3899 20.7648 10.0265 20.533 10.5594 20.533H11.0394H11.5194V22.453C11.5185 22.5166 11.5302 22.5797 11.5539 22.6388C11.5777 22.6978 11.6129 22.7515 11.6575 22.7968C11.7022 22.8421 11.7554 22.8781 11.8141 22.9026C11.8728 22.9272 11.9358 22.9398 11.9994 22.9398C12.063 22.9398 12.126 22.9272 12.1846 22.9026C12.2433 22.8781 12.2966 22.8421 12.3412 22.7968C12.3859 22.7515 12.4211 22.6978 12.4448 22.6388C12.4685 22.5797 12.4803 22.5166 12.4794 22.453V20.533H12.9594H13.4394C13.9723 20.533 14.6088 20.7648 15.08 21.1339C15.5512 21.5031 15.8394 21.978 15.8394 22.453C15.8385 22.5166 15.8502 22.5797 15.8739 22.6388C15.8977 22.6978 15.9329 22.7515 15.9775 22.7968C16.0222 22.8421 16.0754 22.8781 16.1341 22.9026C16.1928 22.9272 16.2558 22.9398 16.3194 22.9398C16.383 22.9398 16.446 22.9272 16.5046 22.9026C16.5633 22.8781 16.6166 22.8421 16.6612 22.7968C16.7059 22.7515 16.7411 22.6978 16.7648 22.6388C16.7885 22.5797 16.8003 22.5166 16.7994 22.453C16.7994 21.6026 16.31 20.8778 15.6725 20.3783C15.035 19.8788 14.2318 19.573 13.4394 19.573V17.653C13.4394 17.5257 13.3888 17.4036 13.2988 17.3136C13.2088 17.2236 13.0867 17.173 12.9594 17.173H12.4794V15.733H15.1194C15.9732 15.733 16.6777 15.0809 16.7788 14.2527C18.1462 14.0307 19.1994 12.8408 19.1994 11.413C19.5888 11.413 19.9527 11.2529 20.2138 10.9874C20.4793 10.7263 20.6394 10.3625 20.6394 9.97299C20.6394 9.18317 19.9892 8.53299 19.1994 8.53299H18.2394C17.8499 8.53299 17.4861 8.69309 17.225 8.95861C17.1247 9.05487 17.0505 9.15758 16.9972 9.24643C16.9966 9.24767 16.9959 9.24892 16.9953 9.25018C16.87 9.46389 16.7994 9.7113 16.7994 9.97299C16.7994 10.7628 17.4496 11.413 18.2394 11.413C18.2394 12.3777 17.5356 13.1632 16.6119 13.3039C16.4434 12.9812 16.174 12.7173 15.845 12.5558C15.9513 12.3709 16.0986 12.2086 16.1188 11.9858L16.7891 4.5383C16.9185 3.09799 15.8306 1.81299 14.4181 1.81299H9.58063ZM9.58063 2.77299H14.4181C15.2473 2.77299 15.9156 3.53076 15.8328 4.45205L15.1625 11.8996C15.1366 12.1862 14.9265 12.373 14.6938 12.373H9.305C9.07224 12.373 8.86218 12.1872 8.83625 11.8996L8.16594 4.45205C8.08317 3.53076 8.75146 2.77299 9.58063 2.77299ZM4.79938 9.49299H5.75938C5.9416 9.49299 6.08916 9.58664 6.17563 9.73486V9.7358C6.21355 9.80047 6.23938 9.88908 6.23938 9.97299C6.23938 10.109 6.18811 10.2216 6.10156 10.3058C6.09839 10.3089 6.09527 10.312 6.09219 10.3152C6.00798 10.4017 5.89538 10.453 5.75938 10.453H5.36C5.30816 10.4444 5.25527 10.4444 5.20344 10.453H4.79938C4.53319 10.453 4.31938 10.2392 4.31938 9.97299C4.31938 9.83699 4.37064 9.72438 4.45719 9.64018C4.46036 9.63709 4.46348 9.63397 4.46656 9.6308C4.55077 9.54425 4.66338 9.49299 4.79938 9.49299ZM18.2394 9.49299H19.1994C19.4656 9.49299 19.6794 9.70681 19.6794 9.97299C19.6794 10.109 19.6281 10.2216 19.5416 10.3058C19.5384 10.3089 19.5353 10.312 19.5322 10.3152C19.448 10.4017 19.3354 10.453 19.1994 10.453H18.8C18.7482 10.4444 18.6953 10.4444 18.6434 10.453H18.2394C17.9732 10.453 17.7594 10.2392 17.7594 9.97299C17.7594 9.88908 17.7852 9.80049 17.8231 9.7358C17.8515 9.68934 17.8726 9.66261 17.8878 9.64861C17.8942 9.64285 17.9005 9.63691 17.9066 9.6308C17.9908 9.54425 18.1034 9.49299 18.2394 9.49299ZM8.87938 13.333H9.305H14.6938H15.1194C15.523 13.333 15.8394 13.6494 15.8394 14.053C15.8394 14.4566 15.523 14.773 15.1194 14.773H12.08C12.0282 14.7644 11.9753 14.7644 11.9234 14.773H8.87938C8.47579 14.773 8.15938 14.4566 8.15938 14.053C8.15938 13.6494 8.47579 13.333 8.87938 13.333ZM11.5194 18.133H11.9188C11.9706 18.1416 12.0235 18.1416 12.0753 18.133H12.4794V19.573H12.08C12.0282 19.5644 11.9753 19.5644 11.9234 19.573H11.5194V18.133Z" fill="white" fill-opacity="0.8"/>
</svg>
