<svg width="24" height="25" viewBox="0 0 24 25" fill="none" xmlns="http://www.w3.org/2000/svg">
<g clip-path="url(#clip0_764_2353)">
<path d="M20.5004 6.40091V6.37291H20.4804C19.5165 5.18567 18.2999 4.22843 16.9193 3.57094C15.5386 2.91344 14.0286 2.57227 12.4994 2.57227C10.9702 2.57227 9.46018 2.91344 8.07951 3.57094C6.69884 4.22843 5.48224 5.18567 4.51839 6.37291H4.49939V6.40091C3.01272 8.23025 2.20117 10.5156 2.20117 12.8729C2.20117 15.2302 3.01272 17.5156 4.49939 19.3449V19.3729H4.51939C5.48324 20.5602 6.69984 21.5174 8.08051 22.1749C9.46118 22.8324 10.9712 23.1736 12.5004 23.1736C14.0296 23.1736 15.5396 22.8324 16.9203 22.1749C18.3009 21.5174 19.5175 20.5602 20.4814 19.3729H20.5024V19.3449C21.9891 17.5156 22.8006 15.2302 22.8006 12.8729C22.8006 10.5156 21.9891 8.23025 20.5024 6.40091H20.5004ZM12.9994 6.37291V3.64491C13.5919 3.8936 14.1248 4.26544 14.5628 4.73576C15.0007 5.20608 15.3336 5.76414 15.5394 6.37291H12.9994ZM15.9344 7.37291C16.4697 8.9869 16.7573 10.6727 16.7874 12.3729H12.9994V7.37291H15.9344ZM11.9994 3.64491V6.37291H9.45939C9.6652 5.76414 9.99811 5.20608 10.436 4.73576C10.8739 4.26544 11.4068 3.8936 11.9994 3.64491ZM11.9994 7.37291V12.3729H8.21139C8.24145 10.6727 8.52905 8.9869 9.06439 7.37291H11.9994ZM7.21239 12.3729H3.22539C3.32015 10.5667 3.94326 8.82811 5.01739 7.37291H8.00139C7.50322 8.9939 7.23824 10.6773 7.21239 12.3729ZM7.21239 13.3729C7.23792 15.0685 7.50356 16.7519 8.00139 18.3729H5.01739C3.94326 16.9177 3.32015 15.1791 3.22539 13.3729H7.21239ZM8.21239 13.3729H11.9994V18.3729H9.06439C8.52905 16.7589 8.24145 15.0731 8.21139 13.3729H8.21239ZM11.9994 19.3729V22.1009C11.4068 21.8522 10.8739 21.4804 10.436 21.0101C9.99811 20.5397 9.6652 19.9817 9.45939 19.3729H11.9994ZM12.9994 22.1009V19.3729H15.5394C15.3336 19.9817 15.0007 20.5397 14.5628 21.0101C14.1248 21.4804 13.5919 21.8522 12.9994 22.1009ZM12.9994 18.3729V13.3729H16.7874C16.7573 15.0731 16.4697 16.7589 15.9344 18.3729H12.9994ZM17.7864 13.3729H21.7734C21.6786 15.1791 21.0555 16.9177 19.9814 18.3729H16.9974C17.4956 16.7519 17.7605 15.0685 17.7864 13.3729ZM17.7864 12.3729C17.7609 10.6773 17.4952 8.99395 16.9974 7.37291H19.9814C21.0555 8.82811 21.6786 10.5667 21.7734 12.3729H17.7864ZM19.1384 6.37291H16.6374C16.2924 5.49967 15.8055 4.68943 15.1964 3.97491C16.6909 4.43065 18.0465 5.25533 19.1384 6.37291ZM9.80239 3.97491C9.19362 4.6895 8.70707 5.49974 8.36239 6.37291H5.85939C6.95125 5.25533 8.30692 4.43065 9.80139 3.97491H9.80239ZM5.86039 19.3729H8.36139C8.70637 20.2462 9.19326 21.0564 9.80239 21.7709C8.30792 21.3152 6.95225 20.4905 5.86039 19.3729ZM15.1964 21.7709C15.8052 21.0563 16.2917 20.2461 16.6364 19.3729H19.1384C18.0465 20.4905 16.6909 21.3152 15.1964 21.7709Z" fill="white" fill-opacity="0.8"/>
</g>
<defs>
<clipPath id="clip0_764_2353">
<rect width="24" height="24" fill="white" transform="translate(0 0.373047)"/>
</clipPath>
</defs>
</svg>
