<svg width="24" height="25" viewBox="0 0 24 25" fill="none" xmlns="http://www.w3.org/2000/svg">
<path d="M10.6668 6.22206H8.48904C7.61785 6.22206 7.18193 6.22206 6.84918 6.39161C6.55648 6.54074 6.31868 6.77854 6.16955 7.07124C6 7.40399 6 7.83991 6 8.7111V16.1778C6 17.049 6 17.4844 6.16955 17.8171C6.31868 18.1098 6.55648 18.348 6.84918 18.4971C7.1816 18.6665 7.61699 18.6665 8.48649 18.6665H15.958C16.8274 18.6665 17.2622 18.6665 17.5946 18.4971C17.8873 18.348 18.1259 18.1095 18.275 17.8169C18.4444 17.4844 18.4444 17.0495 18.4444 16.18V13.9998M15.3333 6.99984L10.6667 11.6665V13.9998H13L17.6667 9.33317M15.3333 6.99984L17.6667 4.6665L20 6.99984L17.6667 9.33317M15.3333 6.99984L17.6667 9.33317" stroke="white" stroke-opacity="0.8" stroke-width="1.55556" stroke-linecap="round" stroke-linejoin="round"/>
</svg>
